<svg width="30" height="30" viewBox="0 0 30 30" fill="none" xmlns="http://www.w3.org/2000/svg">
<path d="M20.8333 10V7.54167C20.8333 6.77562 20.6825 6.01708 20.3893 5.30935C20.0962 4.60161 19.6665 3.95855 19.1248 3.41688C18.5831 2.8752 17.9401 2.44552 17.2323 2.15237C16.5246 1.85922 15.7661 1.70833 15 1.70833C14.234 1.70833 13.4754 1.85922 12.7677 2.15237C12.06 2.44552 11.4169 2.8752 10.8752 3.41688C10.3335 3.95855 9.90387 4.60161 9.61071 5.30935C9.31756 6.01708 9.16668 6.77562 9.16668 7.54167V13.375C9.16668 13.596 9.25447 13.808 9.41075 13.9643C9.56704 14.1205 9.779 14.2083 10 14.2083C10.221 14.2083 10.433 14.1205 10.5893 13.9643C10.7455 13.808 10.8333 13.596 10.8333 13.375V11.6667H17.5V10H10.8333V7.54167C10.8333 6.4366 11.2723 5.37679 12.0537 4.59539C12.8351 3.81399 13.8949 3.375 15 3.375C16.1051 3.375 17.1649 3.81399 17.9463 4.59539C18.7277 5.37679 19.1667 6.4366 19.1667 7.54167V13.3333C19.1667 13.5543 19.2545 13.7663 19.4108 13.9226C19.567 14.0789 19.779 14.1667 20 14.1667C20.221 14.1667 20.433 14.0789 20.5893 13.9226C20.7455 13.7663 20.8333 13.5543 20.8333 13.3333V11.6667H25V26.6667H5.00001V11.6667H7.50001V10H3.33334V26.7417C3.33334 27.1638 3.50104 27.5686 3.79953 27.8671C4.09803 28.1656 4.50287 28.3333 4.92501 28.3333H25.075C25.4971 28.3333 25.902 28.1656 26.2005 27.8671C26.499 27.5686 26.6667 27.1638 26.6667 26.7417V10H20.8333Z" fill="black"/>
</svg>
