<svg width="925" height="388" viewBox="0 0 925 388" fill="none" xmlns="http://www.w3.org/2000/svg">
<path fill-rule="evenodd" clip-rule="evenodd" d="M119.449 234.357V234.141C130.049 226.747 146.996 214.048 146.996 173.201C146.996 120.437 119.27 96.5471 81.8062 96.5471H0V386.288H81.3799C127.507 386.288 149.965 352.336 149.965 301.757C149.97 254.56 131.328 241.557 119.449 234.357ZM48.0848 141.249H74.1745C87.6378 141.249 98.5432 151.091 98.5432 178.174C98.5432 205.583 85.9378 215.051 74.1745 215.051H48.0848V141.249ZM74.8272 341.596H48.0848V259.859H74.8272C93.1537 259.859 101.633 273.408 101.633 297.687C101.633 331.019 91.4537 341.596 74.8272 341.596ZM336.435 289.31C336.435 253.215 325.146 243.048 309.777 234.351V234.136C320.377 226.742 337.183 214.043 337.183 173.195C337.183 120.432 309.604 96.5418 272.129 96.5418H190.323V386.283H238.376L238.408 259.854H264.493C278.177 259.854 287.951 271.134 287.951 296.726V386.283H336.409L336.435 289.31ZM238.408 141.249H264.487C277.966 141.249 288.83 151.091 288.83 178.174C288.83 205.583 276.261 215.051 264.487 215.051H238.408V141.249ZM461.453 0C441.137 0 382.157 4.58997 382.157 63.1673V386.314H430.236V259.875H492.674L492.664 386.241H540.775V63.1673C540.775 4.46394 481.727 0 461.453 0ZM430.179 70.3621C430.179 48.5676 450.331 45.7632 461.453 45.7632C472.59 45.7632 492.664 48.5151 492.664 70.3621L492.643 215.051H430.147L430.179 70.3621ZM684.792 96.4998L684.771 324.56C684.771 336.182 675.129 343.933 660.765 343.933C646.334 343.933 636.834 336.15 636.834 324.56L636.813 96.4998L588.744 96.5471L588.723 332.18C588.723 369.876 621.512 384.34 647.192 388H674.318C699.892 384.329 732.851 369.834 732.851 332.127V96.4998H684.792ZM876.931 158.265C876.931 146.653 867.268 138.897 852.91 138.897C838.488 138.897 828.988 146.664 828.988 158.265L828.957 386.235L780.888 386.288L780.877 150.639C780.877 105.78 827.352 93.8214 852.968 93.8214C878.347 93.8214 925 105.832 925 150.697V386.241H876.931V158.265Z" fill="black"/>
</svg>
