<svg width="2062" height="301" viewBox="0 0 2062 301" fill="none" xmlns="http://www.w3.org/2000/svg">
<path fill-rule="evenodd" clip-rule="evenodd" d="M197.664 8.27509C234.202 21.5355 276.129 53.0608 286.158 93.1949H205.556C183.336 70.9729 147.515 63.8081 118.506 76.352C89.8382 87.463 69.7786 117.203 69.4259 148C68.3458 179.173 87.7 207.479 115.288 221.093C141.079 234.717 178.332 230.043 200.552 211.426C210.218 202.839 216.666 192.433 222.045 182.039L132.482 181.333V122.571H297.279C301.225 166.993 294.061 207.49 268.259 240.085C232.438 285.598 180.129 306.376 122.452 296.709C69.0732 289.169 17.1275 240.449 4.58471 188.134C-5.0814 149.081 0.649934 104.659 20.7096 72.4168C47.217 29.7806 90.5657 3.27071 138.577 0.0410292C159.683 -0.333746 179.39 1.81572 197.664 8.27509ZM698.858 3.61248C742.207 13.6432 790.218 48.0454 803.113 93.5476H722.511C701.018 71.7004 667.7 64.1718 638.679 74.9191C611.455 83.8806 588.519 112.176 586.734 140.846C583.515 170.586 596.411 196.379 620.416 214.292C644.422 232.931 684.905 233.284 709.979 216.441C723.238 208.56 732.188 194.935 738.636 182.039L649.436 181.333V122.571H800.975C809.572 68.4707 858.299 15.0872 912.383 3.9762C947.499 -3.90511 986.902 1.11025 1016.99 16.8729C1046.01 32.2828 1077.9 60.9421 1085.43 93.5476H1004.81C983.32 71.7004 950.001 64.1718 920.98 74.9191C893.757 83.8806 870.831 112.176 869.035 140.846C865.816 170.586 878.712 196.379 902.706 214.292C925.643 231.862 963.965 233.648 988.335 218.943C1003.02 211.426 1014.48 196.016 1020.93 182.039L931.727 181.333V122.571H1096.17C1099.74 163.421 1094.39 202.475 1071.8 233.648C1035.27 285.94 974.723 309.606 912.383 294.923C866.169 285.598 821.387 242.973 807.059 198.176C792.731 244.395 746.153 286.315 698.869 295.64C634.744 309.242 573.838 282.743 538.734 227.927C508.997 184.563 509.361 114.7 538.381 70.9839C573.111 15.7927 634.733 -10.0007 698.858 3.61248ZM474.234 293.832C467.786 279.128 460.975 264.082 453.811 250.105H359.233L338.809 294.174H250.679L406.527 3.25969L562.001 293.832H474.234ZM1835.23 294.174H1747.82L1727.76 250.105H1632.46L1612.4 293.832L1543.96 294.174L1373.08 165.56L1372.38 164.832L1372 294.174H1297.51V11.141L1475.19 144.418L1475.55 8.62788H1551.85L1552.21 241.154V241.518L1679.75 3.25969L1835.23 293.468V294.174ZM1284.61 77.4212H1181.6V120.41L1275.63 121.127V180.959H1181.6V223.242L1284.61 223.606V294.174H1106.53V8.62788H1284.61V77.4212ZM1870.69 170.917C1872.12 193.139 1886.08 216.066 1907.96 223.595C1926.58 232.182 1949.88 227.166 1965.63 215.713C1996.09 192.422 1986.77 150.855 1988.55 115.748V8.62788H2060.56L2062 159.828C2060.92 209.971 2041.57 258.713 1995.35 283.79C1979.12 293.214 1961.02 298.96 1942.33 300.622C1928.72 301.328 1914.02 301.328 1901.49 298.098C1859.57 289.875 1814.8 254.393 1805.12 211.04C1800.83 190.978 1798.68 170.2 1798.31 148.717L1797.97 8.62788H1870.32L1870.69 170.917Z" fill="black"/>
<path fill-rule="evenodd" clip-rule="evenodd" d="M380.725 203.169L408.313 145.851L433.387 203.169H380.725ZM1653.94 203.169L1681.89 145.851L1706.97 202.828L1653.94 203.169Z" fill="white"/>
</svg>
