<svg width="1529" height="344" viewBox="0 0 1529 344" fill="none" xmlns="http://www.w3.org/2000/svg">
<path fill-rule="evenodd" clip-rule="evenodd" d="M692.417 77.2766C689.972 63.6831 685.083 49.2971 654.129 49.2971C623.166 49.2971 619.094 60.8878 619.094 70.0836C619.094 103.662 754.752 79.2794 754.752 157.636C754.752 219.595 693.644 230.785 659.836 230.785C610.542 230.785 557.177 213.987 555.541 157.235H614.205C614.205 175.218 625.61 188.411 661.463 188.411C690.799 188.411 697.715 174.425 697.715 166.431C697.715 130.849 563.284 157.636 563.284 78.0777C563.284 46.9024 583.242 6.923 650.866 6.923C693.235 6.923 743.746 17.3119 748.218 77.2766H692.417ZM1074.94 225.185H1017.9V96.0688C1017.9 64.4929 1003.64 54.0953 986.935 54.0953C958.425 54.0953 948.246 72.4784 948.246 97.6712V225.194H891.201V97.2706C891.201 79.2794 891.201 54.0953 856.976 54.0953C830.093 54.0953 821.55 72.4783 821.55 95.6683V225.194H764.513V12.5137H819.105V43.6977H819.923C827.248 29.7124 843.134 6.923 881.431 6.923C912.794 6.923 927.053 18.1218 941.721 40.9024C949.064 30.5135 964.95 6.923 999.576 6.923C1041.94 6.923 1074.93 31.306 1074.93 78.0777V225.185H1074.94ZM1296.4 162.826C1281.33 213.987 1238.15 230.785 1201.07 230.785C1139.98 230.785 1093.13 202.004 1093.13 114.461C1093.13 88.8759 1102.08 6.923 1196.99 6.923C1239.78 6.923 1298.84 26.9084 1298.84 124.048V134.037H1150.15C1151.78 150.025 1155.03 186.007 1201.07 186.007C1216.96 186.007 1233.26 178.013 1237.74 162.826H1296.4ZM1240.19 97.6712C1236.93 63.2825 1214.52 52.8936 1196.18 52.8936C1169.29 52.8936 1155.03 69.683 1151.77 97.6712H1240.19ZM1529 199.096C1529 234.46 1526.15 293.257 1419.42 293.257C1374.61 293.257 1327.35 275.197 1324.91 231.76H1386.83C1389.27 242.131 1393.76 252.512 1426.74 252.512C1457.31 252.512 1471.97 238.674 1471.97 205.618V181.026L1471.15 180.26C1461.78 196.022 1447.52 211 1413.3 211C1361.17 211 1320.01 176.794 1320.01 105.308C1320.01 34.589 1362.37 0 1410.05 0C1450.38 0 1466.67 22.293 1473.61 35.7385H1474.43V5.3817H1529V199.096ZM1423.91 165.656C1462.59 165.656 1472.38 134.524 1472.38 106.466C1472.38 73.4188 1455.27 46.5105 1423.5 46.5105C1402.3 46.5105 1378.67 61.1141 1378.67 108.774C1378.67 134.916 1390.09 165.656 1423.91 165.656ZM472.17 280.961H463.618V311.414C463.618 313.042 463.531 317.187 467.168 317.187C469.812 317.187 471.352 314.044 472.353 311.928L474.623 313.042C472.718 317.396 469.438 324.372 461.252 324.372C451.429 324.372 451.064 315.873 450.968 313.739V280.961H446.236V278.227C451.064 273.69 455.153 269.231 461.339 259.409H463.609V276.511H472.161V280.961H472.17ZM513.564 311.919C508.014 321.333 502.829 324.563 495.555 324.563C486.36 324.563 477.077 317.083 477.077 299.78C477.077 284.793 485.359 275.292 495.816 275.292C511.65 275.292 512.833 292.892 513.103 298.352H490.17C490.449 306.964 492.45 317.283 501.089 317.283C506.456 317.283 509.641 312.825 511.372 310.508L513.564 311.919ZM501.924 294.625C501.828 291.49 501.828 286.212 501.097 283.191C500.558 280.961 499.375 278.427 496.191 278.427C492.824 278.427 489.727 280.657 489.727 294.625H501.924ZM554.419 313.948C550.234 320.523 544.223 324.572 537.037 324.572C525.396 324.572 517.566 313.861 517.566 301.408C517.566 281.475 530.486 275.301 539.038 275.301C545.493 275.301 553.14 279.046 553.14 286.326C553.14 292.804 547.677 292.804 546.955 292.804C541.865 292.804 541.865 287.85 541.865 282.381C541.899 281.872 541.827 281.361 541.654 280.881C541.481 280.401 541.211 279.962 540.86 279.592C540.51 279.221 540.087 278.928 539.617 278.729C539.148 278.53 538.642 278.43 538.133 278.436C531.042 278.436 530.399 290.889 530.399 295.434C530.399 309.603 535.949 317.797 543.04 317.797C548.225 317.797 550.591 314.862 552.775 312.145L554.419 313.948ZM604.818 323.153H583.442V320.732C586.443 320.427 587.714 318.703 587.714 314.958V290.471C587.714 287.632 587.627 282.067 582.711 282.067C579.075 282.067 575.151 287.022 575.151 287.937V314.958C575.151 317.292 575.429 320.218 579.614 320.732V323.153H557.682V320.732C560.953 320.018 562.51 319.617 562.51 314.653V284.906C562.51 280.352 561.327 279.551 557.682 278.932V276.503H575.064V283.791H575.247C576.517 281.362 580.432 275.292 588.166 275.292C593.168 275.292 600.355 278.419 600.355 289.556V314.958C600.355 317.388 600.355 320.523 604.809 320.732V323.153H604.818ZM629.29 275.292C641.209 275.292 649.761 285.916 649.761 299.971C649.761 313.443 641.662 324.563 629.29 324.563C616.641 324.563 608.733 313.138 608.733 299.971C608.733 286.926 616.649 275.292 629.29 275.292ZM629.386 321.437C635.667 321.437 636.39 312.833 636.39 299.971C636.39 284.401 634.841 278.419 629.29 278.419C622.557 278.419 622.104 288.442 622.104 299.971C622.104 310.909 622.104 321.437 629.386 321.437ZM675.243 323.153H653.502V320.732C657.139 320.732 658.139 317.083 658.139 314.653V263.049C658.139 261.934 657.957 257.179 653.502 257.179V254.758H670.789V314.653C670.789 317.588 671.694 320.732 675.243 320.732V323.153ZM700.264 275.292C712.183 275.292 720.735 285.916 720.735 299.971C720.735 313.443 712.636 324.563 700.264 324.563C687.615 324.563 679.706 313.138 679.706 299.971C679.706 286.926 687.623 275.292 700.264 275.292ZM700.351 321.437C706.633 321.437 707.355 312.833 707.355 299.971C707.355 284.401 705.815 278.419 700.264 278.419C693.531 278.419 693.069 288.442 693.069 299.971C693.069 310.909 693.069 321.437 700.351 321.437ZM759.493 282.877C760.398 283.887 763.13 286.822 763.13 292.892C763.13 299.066 760.128 304.325 753.577 306.659C750.933 307.565 750.933 307.565 742.111 307.565C740.38 307.565 737.021 309.585 737.021 312.624C737.021 316.073 739.379 316.169 746.113 316.273L752.029 316.369C756.483 316.473 766.949 317.484 766.949 328.717C766.949 341.266 754.943 344 743.564 344C732.289 344 725.546 340.456 725.546 334.787C725.546 330.737 728.826 327.707 733.916 327.202V327.002C729.818 325.373 726.816 323.875 726.816 318.598C726.816 312.232 733.55 308.279 737.465 307.069V306.868C730.731 304.143 726.373 298.674 726.373 291.385C726.373 283.295 732.558 275.301 745.025 275.301C748.305 275.301 751.394 275.902 755.03 277.522H766.853V282.886H759.493V282.877ZM736.752 328.412C734.385 330.537 733.559 331.861 733.559 334.081C733.559 340.552 743.111 340.761 744.66 340.761C748.305 340.761 759.763 340.761 759.763 333.576C759.763 329.936 757.214 328.412 752.49 328.412H736.752ZM744.843 304.735C750.576 304.735 750.854 297.455 750.854 291.681C750.854 287.135 750.854 278.427 744.843 278.427C739.301 278.427 738.848 285.315 738.848 291.681C738.84 298.665 739.475 304.735 744.843 304.735ZM791.787 323.153H770.055V320.732C773.335 319.817 774.866 319.513 774.866 314.653V284.906C774.866 280.352 773.509 279.646 770.055 278.932V276.503H787.524V314.958C787.524 318.093 788.255 320.322 791.787 320.732V323.153ZM781.147 253.226C785.054 253.226 788.151 256.77 788.151 261.124C788.151 265.574 785.062 268.918 781.147 268.918C776.971 268.918 774.048 265.478 774.048 261.124C774.048 256.874 777.05 253.226 781.147 253.226ZM838.375 318.798C835.826 322.142 832.459 324.563 828.37 324.563C822.002 324.563 821.271 320.322 820.723 317.484C814.807 324.067 808.456 324.563 806.264 324.563C801.897 324.563 796.259 321.437 796.259 313.73C796.259 303.22 807.813 299.17 820.723 294.816V287.432C820.723 282.268 819.453 278.523 812.719 278.523C809.439 278.523 807.351 280.552 807.351 282.172C807.351 284.297 810.083 285.106 810.083 289.051C810.083 290.871 808.709 294.712 803.985 294.712C802.897 294.712 797.99 294.712 797.99 287.832C797.99 281.466 803.715 275.292 814.999 275.292C825.091 275.292 833.199 279.638 833.199 289.156V315.568C833.199 316.169 833.199 318.093 835.2 318.093C835.371 318.101 835.542 318.069 835.7 318C835.857 317.93 835.995 317.825 836.105 317.693L837.018 316.674L838.375 318.798ZM820.636 298.36C818.548 298.874 809.544 301.809 809.544 310.604C809.544 313.73 810.901 317.388 814.181 317.388C817.269 317.388 819.366 314.653 820.636 313.034V298.36ZM904.425 313.948C900.249 320.523 894.246 324.572 887.06 324.572C875.402 324.572 867.59 313.861 867.59 301.408C867.59 281.475 880.5 275.301 889.052 275.301C895.508 275.301 903.155 279.046 903.155 286.326C903.155 292.804 897.7 292.804 896.969 292.804C891.871 292.804 891.871 287.85 891.871 282.381C891.905 281.872 891.833 281.363 891.661 280.883C891.488 280.404 891.219 279.965 890.869 279.595C890.52 279.225 890.098 278.931 889.629 278.731C889.161 278.532 888.656 278.431 888.147 278.436C881.048 278.436 880.413 290.889 880.413 295.434C880.413 309.603 885.973 317.797 893.054 317.797C898.239 317.797 900.597 314.862 902.789 312.145L904.425 313.948ZM933.004 323.153V320.732C935.997 320.427 937.267 318.703 937.267 314.958V290.471C937.267 287.632 937.18 282.067 932.273 282.067C928.637 282.067 924.713 287.022 924.713 287.937V314.958C924.713 317.292 924.983 320.218 929.185 320.732V323.153H907.253V320.732C910.532 320.018 912.081 319.617 912.081 314.653V263.049C912.081 258.285 910.811 257.989 907.253 257.179V254.758H924.722V283.191C929.089 277.522 933.013 275.301 937.737 275.301C942.748 275.301 949.917 278.427 949.917 289.565V314.662C949.917 316.378 949.917 320.74 954.389 320.74V323.153H933.004ZM995.226 311.919C989.684 321.333 984.49 324.563 977.217 324.563C968.021 324.563 958.747 317.083 958.747 299.78C958.747 284.793 967.021 275.292 977.487 275.292C993.321 275.292 994.495 292.892 994.765 298.352H971.841C972.11 306.964 974.12 317.283 982.768 317.283C988.118 317.283 991.311 312.825 993.051 310.508L995.226 311.919ZM983.594 294.625C983.49 291.49 983.49 286.212 982.776 283.191C982.22 280.961 981.045 278.427 977.852 278.427C974.485 278.427 971.397 280.657 971.397 294.625H983.594ZM1073.48 318.798C1070.93 322.142 1067.57 324.563 1063.48 324.563C1057.11 324.563 1056.38 320.322 1055.83 317.484C1049.91 324.067 1043.55 324.563 1041.37 324.563C1037 324.563 1031.37 321.437 1031.37 313.73C1031.37 303.22 1042.92 299.17 1055.83 294.816V287.432C1055.83 282.268 1054.56 278.523 1047.83 278.523C1044.55 278.523 1042.46 280.552 1042.46 282.172C1042.46 284.297 1045.19 285.106 1045.19 289.051C1045.19 290.871 1043.81 294.712 1039.09 294.712C1037.99 294.712 1033.08 294.712 1033.08 287.832C1033.08 281.466 1038.82 275.292 1050.1 275.292C1060.2 275.292 1068.31 279.638 1068.31 289.156V315.568C1068.31 316.169 1068.31 318.093 1070.3 318.093C1070.47 318.103 1070.64 318.072 1070.8 318.003C1070.96 317.933 1071.1 317.827 1071.21 317.693L1072.12 316.674L1073.48 318.798ZM1055.74 298.36C1053.65 298.874 1044.63 301.809 1044.63 310.604C1044.63 313.73 1046.01 317.388 1049.29 317.388C1052.38 317.388 1054.47 314.653 1055.74 313.034V298.36ZM1101.5 323.153H1077.3V320.732C1080.21 320.122 1082.21 319.722 1082.21 314.653V284.906C1082.21 279.855 1080.03 279.333 1077.3 278.932V276.503H1094.5V284.497H1094.68C1096.59 281.362 1100.68 275.292 1106.59 275.292C1112.78 275.292 1114.14 280.752 1114.14 283.182C1114.14 285.812 1112.87 289.957 1108.32 289.957C1103.04 289.957 1103.12 283.983 1100.22 283.983C1098.86 283.983 1094.85 286.204 1094.85 293.597V312.711C1094.85 318.886 1095.95 320.41 1101.5 320.714V323.153ZM1141.99 323.153H1117.8V320.732C1120.7 320.122 1122.71 319.722 1122.71 314.653V284.906C1122.71 279.855 1120.51 279.333 1117.8 278.932V276.503H1134.98V284.497H1135.16C1137.09 281.362 1141.18 275.292 1147.09 275.292C1153.28 275.292 1154.63 280.752 1154.63 283.182C1154.63 285.812 1153.36 289.957 1148.81 289.957C1143.54 289.957 1143.62 283.983 1140.71 283.983C1139.34 283.983 1135.35 286.204 1135.35 293.597V312.711C1135.35 318.886 1136.43 320.41 1141.99 320.714V323.153ZM1192.77 311.919C1187.22 321.333 1182.03 324.563 1174.76 324.563C1165.56 324.563 1156.29 317.083 1156.29 299.78C1156.29 284.793 1164.58 275.292 1175.03 275.292C1190.86 275.292 1192.05 292.892 1192.32 298.352H1169.38C1169.65 306.964 1171.66 317.283 1180.31 317.283C1185.68 317.283 1188.85 312.825 1190.59 310.508L1192.77 311.919ZM1181.13 294.625C1181.04 291.49 1181.04 286.212 1180.31 283.191C1179.77 280.961 1178.58 278.427 1175.4 278.427C1172.02 278.427 1168.95 280.657 1168.95 294.625H1181.13ZM1243.08 321.132C1231.79 322.648 1230.98 322.752 1225.34 324.476V317.893C1222.06 321.733 1219.51 324.572 1212.7 324.572C1205.14 324.572 1196.78 316.073 1196.78 301.304C1196.78 283.696 1205.78 275.301 1214.33 275.301C1219.81 275.301 1222.89 278.941 1225.07 281.58V263.057C1225.07 257.693 1223.16 257.597 1218.15 257.188V254.767H1237.71V312.947C1237.71 315.672 1237.89 318.607 1243.08 318.816V321.132ZM1225.06 287.231C1225.06 287.127 1223.07 280.953 1217.98 280.953C1211.52 280.953 1210.23 290.061 1210.23 299.876C1210.23 305.745 1210.23 318.903 1217.52 318.903C1221.69 318.903 1225.06 312.929 1225.06 311.832V287.231ZM1289.56 318.798C1287.03 322.142 1283.66 324.563 1279.56 324.563C1273.21 324.563 1272.47 320.322 1271.93 317.484C1266.01 324.067 1259.64 324.563 1257.45 324.563C1253.08 324.563 1247.45 321.437 1247.45 313.73C1247.45 303.22 1259 299.17 1271.93 294.816V287.432C1271.93 282.268 1270.66 278.523 1263.91 278.523C1260.64 278.523 1258.54 280.552 1258.54 282.172C1258.54 284.297 1261.27 285.106 1261.27 289.051C1261.27 290.871 1259.91 294.712 1255.17 294.712C1254.08 294.712 1249.18 294.712 1249.18 287.832C1249.18 281.466 1254.9 275.292 1266.18 275.292C1276.29 275.292 1284.38 279.638 1284.38 289.156V315.568C1284.38 316.169 1284.38 318.093 1286.39 318.093C1286.56 318.103 1286.73 318.072 1286.89 318.003C1287.05 317.933 1287.19 317.827 1287.3 317.693L1288.2 316.674L1289.56 318.798ZM1271.82 298.36C1269.73 298.874 1260.73 301.809 1260.73 310.604C1260.73 313.73 1262.09 317.388 1265.37 317.388C1268.46 317.388 1270.55 314.653 1271.82 313.034V298.36ZM138.938 223.722C138.938 242.164 131.619 259.851 118.591 272.891C105.563 285.931 87.893 293.257 69.4688 293.257C51.0445 293.257 33.3748 285.931 20.3469 272.891C7.319 259.851 0 242.164 0 223.722C0 205.281 7.319 187.594 20.3469 174.554C33.3748 161.513 51.0445 154.187 69.4688 154.187C87.893 154.187 105.563 161.513 118.591 174.554C131.619 187.594 138.938 205.281 138.938 223.722Z" fill="black"/>
<path fill-rule="evenodd" clip-rule="evenodd" d="M277.875 223.722C277.875 232.854 276.078 241.896 272.587 250.332C269.096 258.769 263.979 266.434 257.528 272.891C251.077 279.348 243.419 284.47 234.991 287.964C226.563 291.459 217.529 293.257 208.406 293.257C199.284 293.257 190.25 291.459 181.822 287.964C173.393 284.47 165.735 279.348 159.284 272.891C152.834 266.434 147.717 258.769 144.226 250.332C140.734 241.896 138.938 232.854 138.938 223.722C138.938 205.281 146.257 187.594 159.284 174.554C172.312 161.513 189.982 154.187 208.406 154.187C226.831 154.187 244.5 161.513 257.528 174.554C270.556 187.594 277.875 205.281 277.875 223.722Z" fill="black"/>
<path fill-rule="evenodd" clip-rule="evenodd" d="M416.804 223.722C416.804 242.164 409.485 259.851 396.457 272.891C383.429 285.931 365.759 293.257 347.335 293.257C328.911 293.257 311.241 285.931 298.213 272.891C285.185 259.851 277.866 242.164 277.866 223.722C277.866 205.28 285.185 187.594 298.213 174.554C311.241 161.513 328.911 154.187 347.335 154.187C365.759 154.187 383.429 161.513 396.457 174.554C409.485 187.594 416.804 205.28 416.804 223.722ZM277.875 84.6698C277.875 123.073 246.773 154.196 208.406 154.196C194.666 154.196 181.235 150.118 169.811 142.477C158.386 134.836 149.482 123.975 144.225 111.269C138.967 98.5626 137.592 84.5809 140.273 71.0922C142.954 57.6035 149.571 45.2136 159.288 35.4894C169.004 25.7651 181.383 19.1431 194.859 16.4611C208.335 13.7791 222.303 15.1573 234.997 20.4216C247.69 25.6859 258.539 34.5997 266.172 46.0358C273.804 57.4719 277.877 70.9167 277.875 84.6698Z" fill="black"/>
<path fill-rule="evenodd" clip-rule="evenodd" d="M416.804 84.6698C416.804 93.8009 415.007 102.843 411.516 111.278C408.024 119.714 402.907 127.379 396.456 133.835C390.006 140.292 382.347 145.413 373.919 148.906C365.491 152.4 356.457 154.197 347.335 154.196C328.913 154.196 311.246 146.871 298.219 133.832C285.193 120.794 277.875 103.109 277.875 84.6698C277.875 66.2303 285.193 48.546 298.219 35.5073C311.246 22.4686 328.913 15.1435 347.335 15.1435C356.458 15.1412 365.492 16.938 373.92 20.4311C382.349 23.9242 390.008 29.0452 396.459 35.5017C402.91 41.9581 408.027 49.6235 411.518 58.0599C415.009 66.4963 416.805 75.5384 416.804 84.6698Z" fill="black"/>
<path fill-rule="evenodd" clip-rule="evenodd" d="M555.733 84.6698C555.877 93.8927 554.187 103.052 550.761 111.615C547.335 120.178 542.241 127.973 535.775 134.546C529.31 141.119 521.603 146.338 513.103 149.901C504.602 153.464 495.479 155.298 486.264 155.296C477.048 155.295 467.926 153.459 459.426 149.894C450.927 146.33 443.221 141.108 436.757 134.533C430.294 127.959 425.202 120.163 421.777 111.599C418.353 103.035 416.666 93.8753 416.813 84.6524C417.103 66.4035 424.551 49.0006 437.547 36.1992C450.544 23.3978 468.047 16.2242 486.281 16.2265C504.515 16.2288 522.017 23.4068 535.01 36.2114C548.004 49.0161 555.446 66.4208 555.733 84.6698Z" fill="black"/>
</svg>
